<?xml version="1.0" encoding="utf-8"?>
<!-- Generator: Adobe Illustrator 16.0.4, SVG Export Plug-In . SVG Version: 6.00 Build 0)  -->
<!DOCTYPE svg PUBLIC "-//W3C//DTD SVG 1.1//EN" "http://www.w3.org/Graphics/SVG/1.1/DTD/svg11.dtd">
<svg version="1.1" id="Layer_1" xmlns="http://www.w3.org/2000/svg" xmlns:xlink="http://www.w3.org/1999/xlink" x="0px" y="0px"
	 width="13.791px" height="13.792px" viewBox="0 0 13.791 13.792" enable-background="new 0 0 13.791 13.792" xml:space="preserve">
<g>
	<g>
		<path fill="#219DE5" d="M7.045,0.417c-0.422,0-0.828,0.064-1.212,0.182l1.304,1.304c1.4,0.051,2.52,1.202,2.52,2.614
			c0,1.446-1.172,2.617-2.616,2.617c-0.78,0-1.481-0.342-1.96-0.883L2.959,4.128c-0.013,0.13-0.02,0.261-0.02,0.394
			c0,2.268,1.838,4.105,4.105,4.105c2.269,0,4.107-1.838,4.107-4.105S9.313,0.417,7.045,0.417z"/>
	</g>
	<polygon fill="#219DE5" points="10.761,6.271 7.045,7.775 3.371,6.355 7.045,13.25 	"/>
</g>
</svg>
