<?xml version="1.0" encoding="utf-8"?>
<!-- Generator: Adobe Illustrator 16.0.4, SVG Export Plug-In . SVG Version: 6.00 Build 0)  -->
<!DOCTYPE svg PUBLIC "-//W3C//DTD SVG 1.1//EN" "http://www.w3.org/Graphics/SVG/1.1/DTD/svg11.dtd">
<svg version="1.1" id="Layer_1" xmlns="http://www.w3.org/2000/svg" xmlns:xlink="http://www.w3.org/1999/xlink" x="0px" y="0px"
	 width="62.75px" height="34.5px" viewBox="0 0 62.75 34.5" enable-background="new 0 0 62.75 34.5" xml:space="preserve">
<g>
	<path fill="#FFFFFF" d="M11.052,8.32c-4.523,0-8.188,3.604-8.188,8.05c0,4.446,3.665,8.05,8.188,8.05
		c4.522,0,8.189-3.604,8.189-8.05C19.241,11.924,15.574,8.32,11.052,8.32z M11.049,21.425c-2.842,0-5.146-2.265-5.146-5.058
		c0-2.794,2.304-5.059,5.146-5.059s5.146,2.265,5.146,5.059C16.194,19.16,13.891,21.425,11.049,21.425z"/>
	<path fill="#FFFFFF" d="M37.727,8.32c-4.522,0-8.189,3.604-8.189,8.05c0,4.446,3.667,8.05,8.189,8.05
		c4.522,0,8.189-3.604,8.189-8.05C45.916,11.924,42.249,8.32,37.727,8.32z M37.724,21.425c-2.841,0-5.146-2.265-5.146-5.058
		c0-2.794,2.305-5.059,5.146-5.059c2.842,0,5.146,2.265,5.146,5.059C42.869,19.16,40.565,21.425,37.724,21.425z"/>
	<rect x="16.875" y="2" fill="#FFFFFF" width="3" height="23"/>
	<rect x="42.875" y="16" fill="#FFFFFF" width="3" height="16"/>
	<g>
		<path fill="#FFFFFF" d="M30.555,11.072c-1.501-1.687-3.706-2.752-6.166-2.752c-4.523,0-7.872,3.604-7.872,8.05
			c0,2.528,1.357,4.784,3.357,6.259V17h-0.619c0.198-3,2.419-5.183,5.13-5.183c2.006,0,3.743,0.875,4.592,2.521
			C29.15,13.459,29.571,12.098,30.555,11.072z"/>
		<path fill="#FFFFFF" d="M32.914,16.37c0-1.746-0.733-2.854-1.694-4.173C30.865,12.63,29.489,15,29.52,17h2.355v3.833
			C32.875,19.556,32.914,18.021,32.914,16.37z"/>
	</g>
	<path fill="#FFFFFF" d="M51.064,8.32c-2.476,0-4.696,1.081-6.198,2.789c0.006,0.006,0.012,0.012,0.019,0.019
		c0.965,0.971,1.416,2.023,1.618,2.891c0.861-1.611,2.579-2.71,4.558-2.71c2.841,0,5.146,2.265,5.146,5.059
		c0,2.793-2.304,5.058-5.146,5.058c-2.842,0-5.145-2.265-5.145-5.058c0-0.284,0.023-0.561,0.069-0.831
		c-0.192-2.272-1.606-3.815-1.606-3.815l0,0c-0.947,1.313-1.503,2.917-1.503,4.649c0,4.446,3.666,8.05,8.188,8.05
		c4.523,0,8.189-3.604,8.189-8.05C59.253,11.924,55.587,8.32,51.064,8.32z"/>
	<polygon fill="#FFFFFF" points="16.875,2 16.875,6.584 19.241,2 	"/>
</g>
</svg>
